<mxfile host="www.draw.io" modified="2019-12-08T04:50:27.631Z" agent="Mozilla/5.0 (Windows NT 6.1; WOW64) AppleWebKit/537.36 (KHTML, like Gecko) Chrome/70.0.3538.25 Safari/537.36 Core/1.70.3741.400 QQBrowser/10.5.3863.400" etag="TqMKxrNA8nhuG9dtgyB3" version="12.3.8" type="github" pages="1">
  <diagram id="KRN9th12YZEuFvW1oWvK" name="第 1 页">
    <mxGraphModel dx="1422" dy="781" grid="1" gridSize="10" guides="1" tooltips="1" connect="1" arrows="1" fold="1" page="1" pageScale="1" pageWidth="1169" pageHeight="827" math="0" shadow="0">
      <root>
        <mxCell id="0"/>
        <mxCell id="1" parent="0"/>
        <mxCell id="hxObZTATBqO-4w2LntiC-11" value="" style="edgeStyle=orthogonalEdgeStyle;rounded=0;orthogonalLoop=1;jettySize=auto;html=1;entryX=0;entryY=0.5;entryDx=0;entryDy=0;" parent="1" source="hxObZTATBqO-4w2LntiC-9" target="hxObZTATBqO-4w2LntiC-12" edge="1">
          <mxGeometry relative="1" as="geometry">
            <mxPoint x="855" y="155" as="targetPoint"/>
          </mxGeometry>
        </mxCell>
        <mxCell id="hxObZTATBqO-4w2LntiC-9" value="开始" style="strokeWidth=2;html=1;shape=mxgraph.flowchart.terminator;whiteSpace=wrap;gradientColor=none;" parent="1" vertex="1">
          <mxGeometry x="79" y="610" width="60" height="40" as="geometry"/>
        </mxCell>
        <mxCell id="hxObZTATBqO-4w2LntiC-16" style="edgeStyle=orthogonalEdgeStyle;rounded=0;orthogonalLoop=1;jettySize=auto;html=1;exitX=1;exitY=0.5;exitDx=0;exitDy=0;entryX=0;entryY=0.5;entryDx=0;entryDy=0;entryPerimeter=0;" parent="1" source="hxObZTATBqO-4w2LntiC-12" target="hxObZTATBqO-4w2LntiC-15" edge="1">
          <mxGeometry relative="1" as="geometry"/>
        </mxCell>
        <mxCell id="hxObZTATBqO-4w2LntiC-12" value="接口请求后端返回版本号" style="rounded=0;whiteSpace=wrap;html=1;absoluteArcSize=1;arcSize=14;strokeWidth=2;" parent="1" vertex="1">
          <mxGeometry x="177" y="605" width="90" height="50" as="geometry"/>
        </mxCell>
        <mxCell id="hxObZTATBqO-4w2LntiC-19" style="edgeStyle=orthogonalEdgeStyle;rounded=0;orthogonalLoop=1;jettySize=auto;html=1;exitX=0.5;exitY=1;exitDx=0;exitDy=0;exitPerimeter=0;entryX=0;entryY=0.5;entryDx=0;entryDy=0;" parent="1" source="hxObZTATBqO-4w2LntiC-15" target="hxObZTATBqO-4w2LntiC-18" edge="1">
          <mxGeometry relative="1" as="geometry"/>
        </mxCell>
        <mxCell id="hxObZTATBqO-4w2LntiC-22" style="edgeStyle=orthogonalEdgeStyle;rounded=0;orthogonalLoop=1;jettySize=auto;html=1;exitX=0.5;exitY=0;exitDx=0;exitDy=0;exitPerimeter=0;entryX=0;entryY=0.5;entryDx=0;entryDy=0;entryPerimeter=0;" parent="1" source="hxObZTATBqO-4w2LntiC-15" target="hxObZTATBqO-4w2LntiC-21" edge="1">
          <mxGeometry relative="1" as="geometry"/>
        </mxCell>
        <mxCell id="hxObZTATBqO-4w2LntiC-15" value="是否返回版本号？&lt;br&gt;or版本号符合规则？" style="strokeWidth=2;html=1;shape=mxgraph.flowchart.decision;whiteSpace=wrap;rounded=0;gradientColor=none;" parent="1" vertex="1">
          <mxGeometry x="305" y="585" width="150" height="90" as="geometry"/>
        </mxCell>
        <mxCell id="hxObZTATBqO-4w2LntiC-38" style="edgeStyle=orthogonalEdgeStyle;rounded=0;orthogonalLoop=1;jettySize=auto;html=1;exitX=1;exitY=0.5;exitDx=0;exitDy=0;entryX=0.5;entryY=1;entryDx=0;entryDy=0;entryPerimeter=0;" parent="1" source="hxObZTATBqO-4w2LntiC-18" target="hxObZTATBqO-4w2LntiC-36" edge="1">
          <mxGeometry relative="1" as="geometry"/>
        </mxCell>
        <mxCell id="hxObZTATBqO-4w2LntiC-18" value="不处理" style="rounded=0;whiteSpace=wrap;html=1;gradientColor=none;strokeWidth=2;" parent="1" vertex="1">
          <mxGeometry x="681" y="720" width="87" height="50" as="geometry"/>
        </mxCell>
        <mxCell id="hxObZTATBqO-4w2LntiC-20" value="否" style="text;html=1;resizable=0;points=[];autosize=1;align=left;verticalAlign=top;spacingTop=-4;" parent="1" vertex="1">
          <mxGeometry x="390" y="700" width="30" height="20" as="geometry"/>
        </mxCell>
        <mxCell id="hxObZTATBqO-4w2LntiC-25" style="edgeStyle=orthogonalEdgeStyle;rounded=0;orthogonalLoop=1;jettySize=auto;html=1;exitX=0.5;exitY=1;exitDx=0;exitDy=0;exitPerimeter=0;" parent="1" source="hxObZTATBqO-4w2LntiC-21" target="hxObZTATBqO-4w2LntiC-24" edge="1">
          <mxGeometry relative="1" as="geometry"/>
        </mxCell>
        <mxCell id="hxObZTATBqO-4w2LntiC-28" style="edgeStyle=orthogonalEdgeStyle;rounded=0;orthogonalLoop=1;jettySize=auto;html=1;exitX=1;exitY=0.5;exitDx=0;exitDy=0;exitPerimeter=0;entryX=0.5;entryY=0;entryDx=0;entryDy=0;entryPerimeter=0;" parent="1" source="hxObZTATBqO-4w2LntiC-21" target="hxObZTATBqO-4w2LntiC-27" edge="1">
          <mxGeometry relative="1" as="geometry"/>
        </mxCell>
        <mxCell id="hxObZTATBqO-4w2LntiC-21" value="本地是否有版本缓存" style="strokeWidth=2;html=1;shape=mxgraph.flowchart.decision;whiteSpace=wrap;rounded=0;gradientColor=none;" parent="1" vertex="1">
          <mxGeometry x="479" y="460" width="133" height="60" as="geometry"/>
        </mxCell>
        <mxCell id="hxObZTATBqO-4w2LntiC-23" value="是" style="text;html=1;resizable=0;points=[];autosize=1;align=left;verticalAlign=top;spacingTop=-4;" parent="1" vertex="1">
          <mxGeometry x="390" y="530" width="30" height="20" as="geometry"/>
        </mxCell>
        <mxCell id="hxObZTATBqO-4w2LntiC-33" style="edgeStyle=orthogonalEdgeStyle;rounded=0;orthogonalLoop=1;jettySize=auto;html=1;exitX=0.5;exitY=1;exitDx=0;exitDy=0;entryX=0;entryY=0.5;entryDx=0;entryDy=0;" parent="1" source="hxObZTATBqO-4w2LntiC-24" target="hxObZTATBqO-4w2LntiC-18" edge="1">
          <mxGeometry relative="1" as="geometry"/>
        </mxCell>
        <mxCell id="hxObZTATBqO-4w2LntiC-24" value="缓存到本地版本" style="rounded=0;whiteSpace=wrap;html=1;gradientColor=none;strokeWidth=2;" parent="1" vertex="1">
          <mxGeometry x="496" y="605" width="100" height="50" as="geometry"/>
        </mxCell>
        <mxCell id="hxObZTATBqO-4w2LntiC-26" value="否" style="text;html=1;resizable=0;points=[];autosize=1;align=left;verticalAlign=top;spacingTop=-4;" parent="1" vertex="1">
          <mxGeometry x="553" y="550" width="30" height="20" as="geometry"/>
        </mxCell>
        <mxCell id="hxObZTATBqO-4w2LntiC-31" style="edgeStyle=orthogonalEdgeStyle;rounded=0;orthogonalLoop=1;jettySize=auto;html=1;exitX=1;exitY=0.5;exitDx=0;exitDy=0;exitPerimeter=0;entryX=0;entryY=0.5;entryDx=0;entryDy=0;" parent="1" source="hxObZTATBqO-4w2LntiC-27" target="hxObZTATBqO-4w2LntiC-30" edge="1">
          <mxGeometry relative="1" as="geometry"/>
        </mxCell>
        <mxCell id="zwLzkiTBW-GVqm5WO4v4-2" style="edgeStyle=orthogonalEdgeStyle;rounded=0;orthogonalLoop=1;jettySize=auto;html=1;exitX=0.5;exitY=1;exitDx=0;exitDy=0;exitPerimeter=0;entryX=0.5;entryY=0;entryDx=0;entryDy=0;" parent="1" source="hxObZTATBqO-4w2LntiC-27" target="hxObZTATBqO-4w2LntiC-18" edge="1">
          <mxGeometry relative="1" as="geometry"/>
        </mxCell>
        <mxCell id="hxObZTATBqO-4w2LntiC-27" value="&lt;font color=&quot;#ff0000&quot;&gt;本地版本与返回版本&lt;br&gt;是否一致？&lt;br&gt;&lt;/font&gt;" style="strokeWidth=2;html=1;shape=mxgraph.flowchart.decision;whiteSpace=wrap;rounded=0;gradientColor=none;" parent="1" vertex="1">
          <mxGeometry x="643" y="596.5" width="163" height="67" as="geometry"/>
        </mxCell>
        <mxCell id="hxObZTATBqO-4w2LntiC-29" value="是" style="text;html=1;resizable=0;points=[];autosize=1;align=left;verticalAlign=top;spacingTop=-4;" parent="1" vertex="1">
          <mxGeometry x="666" y="500" width="30" height="20" as="geometry"/>
        </mxCell>
        <mxCell id="0sV-r9rKxFtVAhIIabMH-1" style="edgeStyle=orthogonalEdgeStyle;rounded=0;orthogonalLoop=1;jettySize=auto;html=1;exitX=1;exitY=0.5;exitDx=0;exitDy=0;" edge="1" parent="1" source="hxObZTATBqO-4w2LntiC-30" target="hxObZTATBqO-4w2LntiC-36">
          <mxGeometry relative="1" as="geometry"/>
        </mxCell>
        <mxCell id="hxObZTATBqO-4w2LntiC-30" value="提示用户刷新页面&lt;br&gt;更新到本地版本缓存" style="rounded=0;whiteSpace=wrap;html=1;gradientColor=none;strokeWidth=2;" parent="1" vertex="1">
          <mxGeometry x="860" y="605" width="126" height="50" as="geometry"/>
        </mxCell>
        <mxCell id="hxObZTATBqO-4w2LntiC-32" value="是" style="text;html=1;resizable=0;points=[];autosize=1;align=left;verticalAlign=top;spacingTop=-4;" parent="1" vertex="1">
          <mxGeometry x="730.5" y="682" width="30" height="20" as="geometry"/>
        </mxCell>
        <mxCell id="hxObZTATBqO-4w2LntiC-36" value="结束" style="strokeWidth=2;html=1;shape=mxgraph.flowchart.terminator;whiteSpace=wrap;gradientColor=none;" parent="1" vertex="1">
          <mxGeometry x="1029" y="610" width="60" height="40" as="geometry"/>
        </mxCell>
        <mxCell id="hxObZTATBqO-4w2LntiC-39" value="用户浏览器&lt;br&gt;本地版本" style="shape=umlLifeline;perimeter=lifelinePerimeter;whiteSpace=wrap;html=1;container=1;collapsible=0;recursiveResize=0;outlineConnect=0;" parent="1" vertex="1">
          <mxGeometry x="373" y="60" width="100" height="300" as="geometry"/>
        </mxCell>
        <mxCell id="hxObZTATBqO-4w2LntiC-40" value="" style="html=1;points=[];perimeter=orthogonalPerimeter;" parent="hxObZTATBqO-4w2LntiC-39" vertex="1">
          <mxGeometry x="45" y="80" width="10" height="180" as="geometry"/>
        </mxCell>
        <mxCell id="hxObZTATBqO-4w2LntiC-41" value="配置版本&lt;br&gt;「后端配置」" style="shape=umlLifeline;perimeter=lifelinePerimeter;whiteSpace=wrap;html=1;container=1;collapsible=0;recursiveResize=0;outlineConnect=0;" parent="1" vertex="1">
          <mxGeometry x="645.5" y="60" width="100" height="300" as="geometry"/>
        </mxCell>
        <mxCell id="hxObZTATBqO-4w2LntiC-42" value="" style="html=1;points=[];perimeter=orthogonalPerimeter;" parent="hxObZTATBqO-4w2LntiC-41" vertex="1">
          <mxGeometry x="45" y="80" width="10" height="50" as="geometry"/>
        </mxCell>
        <mxCell id="hxObZTATBqO-4w2LntiC-43" value="1.轮询配置代码版本" style="html=1;verticalAlign=bottom;endArrow=block;strokeWidth=1;dashed=1;entryX=-0.2;entryY=0;entryDx=0;entryDy=0;entryPerimeter=0;exitX=0.8;exitY=0;exitDx=0;exitDy=0;exitPerimeter=0;" parent="1" target="hxObZTATBqO-4w2LntiC-42" edge="1">
          <mxGeometry x="-0.3388" width="80" relative="1" as="geometry">
            <mxPoint x="423" y="140" as="sourcePoint"/>
            <mxPoint x="503" y="140" as="targetPoint"/>
            <mxPoint as="offset"/>
          </mxGeometry>
        </mxCell>
        <mxCell id="hxObZTATBqO-4w2LntiC-44" value="2.返回配置版本" style="text;html=1;resizable=0;points=[];autosize=1;align=left;verticalAlign=top;spacingTop=-4;" parent="1" vertex="1">
          <mxGeometry x="450" y="160" width="100" height="20" as="geometry"/>
        </mxCell>
        <mxCell id="hxObZTATBqO-4w2LntiC-45" value="" style="html=1;points=[];perimeter=orthogonalPerimeter;" parent="1" vertex="1">
          <mxGeometry x="428" y="180" width="10" height="20" as="geometry"/>
        </mxCell>
        <mxCell id="hxObZTATBqO-4w2LntiC-46" value="&lt;font color=&quot;#ff0000&quot;&gt;3.返回数据符合规则，本地是否有版本？&lt;br&gt;1）没有则缓存到本地版本&lt;br&gt;2）有则判断本地版本与配置版本是否一致？&lt;br&gt;&amp;nbsp; &amp;nbsp; &amp;nbsp; ①不一致：提示用户刷新，更新本地版本&lt;br&gt;&amp;nbsp; &amp;nbsp; &amp;nbsp; ②否则不处理&lt;/font&gt;" style="edgeStyle=orthogonalEdgeStyle;html=1;align=left;spacingLeft=2;endArrow=block;rounded=0;exitX=1;exitY=0.9;exitDx=0;exitDy=0;exitPerimeter=0;" parent="1" source="hxObZTATBqO-4w2LntiC-45" edge="1">
          <mxGeometry x="0.1008" relative="1" as="geometry">
            <mxPoint x="443" y="185" as="sourcePoint"/>
            <Array as="points">
              <mxPoint x="447" y="198"/>
              <mxPoint x="447" y="280"/>
            </Array>
            <mxPoint x="429" y="280" as="targetPoint"/>
            <mxPoint as="offset"/>
          </mxGeometry>
        </mxCell>
        <mxCell id="hxObZTATBqO-4w2LntiC-48" value="" style="edgeStyle=orthogonalEdgeStyle;rounded=0;orthogonalLoop=1;jettySize=auto;html=1;entryX=1;entryY=0.1;entryDx=0;entryDy=0;entryPerimeter=0;exitX=0;exitY=0.84;exitDx=0;exitDy=0;exitPerimeter=0;endArrow=block;endFill=1;" parent="1" source="hxObZTATBqO-4w2LntiC-42" target="hxObZTATBqO-4w2LntiC-45" edge="1">
          <mxGeometry relative="1" as="geometry">
            <mxPoint x="762" y="165" as="targetPoint"/>
          </mxGeometry>
        </mxCell>
        <mxCell id="zwLzkiTBW-GVqm5WO4v4-1" value="否" style="text;html=1;resizable=0;points=[];autosize=1;align=left;verticalAlign=top;spacingTop=-4;" parent="1" vertex="1">
          <mxGeometry x="815.5" y="605" width="30" height="20" as="geometry"/>
        </mxCell>
      </root>
    </mxGraphModel>
  </diagram>
</mxfile>
